<svg width="50" height="55" viewBox="0 0 50 55" fill="none" xmlns="http://www.w3.org/2000/svg">
<path fill-rule="evenodd" clip-rule="evenodd" d="M24.8539 1.1846L24.4419 2.09578L24.0361 1.1818L24.4456 1L24.8539 1.1846ZM24.4419 11.0958L24.016 12.0005L24.4458 12.2029L24.8742 11.9975L24.4419 11.0958ZM24.4372 3.2317C24.6969 3.39028 25.0381 3.62556 25.3758 3.93548C26.07 4.57281 26.6621 5.43955 26.6621 6.55183C26.6621 7.66836 26.0659 8.55961 25.3651 9.22209C25.0322 9.53674 24.6961 9.77925 24.437 9.94562C24.1713 9.77858 23.825 9.53394 23.4823 9.21584C22.7658 8.55087 22.1621 7.66123 22.1621 6.55183C22.1621 5.4468 22.7615 4.58156 23.4715 3.94162C23.8192 3.62826 24.1707 3.3909 24.4372 3.2317ZM24.8708 10.1924C24.8709 10.1925 24.8709 10.1925 24.8708 10.1924V10.1924ZM24.0361 1.1818C24.0365 1.18164 24.0361 1.1818 24.4419 2.09578C24.8539 1.1846 24.8535 1.18443 24.8539 1.1846L24.8554 1.18529L24.8573 1.18612L24.8618 1.1882L24.8744 1.19405C24.8843 1.19869 24.8973 1.20483 24.9131 1.21247C24.9448 1.22776 24.9878 1.24909 25.0407 1.27652C25.1463 1.33129 25.2919 1.41082 25.4642 1.51548C25.8069 1.72362 26.2657 2.03753 26.7282 2.46213C27.6441 3.30283 28.6621 4.66412 28.6621 6.55183C28.6621 8.43531 27.6482 9.81603 26.7389 10.6755C26.2788 11.1105 25.8221 11.4354 25.4809 11.652C25.3094 11.7608 25.1645 11.8439 25.0595 11.9013C25.0069 11.93 24.9641 11.9523 24.9327 11.9684C24.9171 11.9764 24.9042 11.9828 24.8944 11.9877L24.882 11.9938L24.8775 11.9959L24.8757 11.9968C24.8754 11.997 24.8742 11.9975 24.4419 11.0958C24.016 12.0005 24.0163 12.0007 24.016 12.0005L24.0127 11.999L24.0082 11.9969L23.9957 11.9908C23.9858 11.986 23.9728 11.9797 23.957 11.9717C23.9252 11.9558 23.8818 11.9335 23.8285 11.9049C23.7219 11.8478 23.5748 11.765 23.4005 11.6563C23.0539 11.4403 22.5897 11.1161 22.1217 10.6818C21.1983 9.82477 20.1621 8.44244 20.1621 6.55183C20.1621 4.65687 21.2026 3.29408 22.1325 2.45599C22.6028 2.0321 23.0692 1.71885 23.4172 1.51131C23.5922 1.40693 23.74 1.32766 23.8471 1.27311C23.9008 1.2458 23.9444 1.22457 23.9764 1.20939C23.9924 1.2018 24.0055 1.1957 24.0156 1.19111L24.0282 1.18534L24.0328 1.18329L24.0346 1.18248L24.0361 1.1818Z" fill="#262626"/>
<path d="M24.4419 2.09578L24.8539 1.1846M24.4419 2.09578L24.0361 1.1818M24.4419 2.09578C24.0361 1.1818 24.0365 1.18164 24.0361 1.1818M24.4419 2.09578C24.8539 1.1846 24.8535 1.18443 24.8539 1.1846M24.8539 1.1846L24.4456 1L24.0361 1.1818M24.8539 1.1846L24.8554 1.18529L24.8573 1.18612L24.8618 1.1882L24.8744 1.19405C24.8843 1.19869 24.8973 1.20483 24.9131 1.21247C24.9448 1.22776 24.9878 1.24909 25.0407 1.27652C25.1463 1.33129 25.2919 1.41082 25.4642 1.51548C25.8069 1.72362 26.2657 2.03753 26.7282 2.46213C27.6441 3.30283 28.6621 4.66412 28.6621 6.55183C28.6621 8.43531 27.6482 9.81603 26.7389 10.6755C26.2788 11.1105 25.8221 11.4354 25.4809 11.652C25.3094 11.7608 25.1645 11.8439 25.0595 11.9013C25.0069 11.93 24.9641 11.9523 24.9327 11.9684C24.9171 11.9764 24.9042 11.9828 24.8944 11.9877L24.882 11.9938L24.8775 11.9959L24.8757 11.9968C24.8754 11.997 24.8742 11.9975 24.4419 11.0958M24.0361 1.1818L24.0346 1.18248L24.0328 1.18329L24.0282 1.18534L24.0156 1.19111C24.0055 1.1957 23.9924 1.2018 23.9764 1.20939C23.9444 1.22457 23.9008 1.2458 23.8471 1.27311C23.74 1.32766 23.5922 1.40693 23.4172 1.51131C23.0692 1.71885 22.6028 2.0321 22.1325 2.45599C21.2026 3.29408 20.1621 4.65687 20.1621 6.55183C20.1621 8.44244 21.1983 9.82477 22.1217 10.6818C22.5897 11.1161 23.0539 11.4403 23.4005 11.6563C23.5748 11.765 23.7219 11.8478 23.8285 11.9049C23.8818 11.9335 23.9252 11.9558 23.957 11.9717C23.9728 11.9797 23.9858 11.986 23.9957 11.9908L24.0082 11.9969L24.0127 11.999L24.016 12.0005M24.4419 11.0958L24.016 12.0005M24.4419 11.0958L24.8742 11.9975L24.4458 12.2029L24.016 12.0005M24.4419 11.0958C24.016 12.0005 24.0163 12.0007 24.016 12.0005M24.4372 3.2317C24.6969 3.39028 25.0381 3.62556 25.3758 3.93548C26.07 4.57281 26.6621 5.43955 26.6621 6.55183C26.6621 7.66836 26.0659 8.55961 25.3651 9.22209C25.0322 9.53674 24.6961 9.77925 24.437 9.94562C24.1713 9.77858 23.825 9.53394 23.4823 9.21584C22.7658 8.55087 22.1621 7.66123 22.1621 6.55183C22.1621 5.4468 22.7615 4.58156 23.4715 3.94162C23.8192 3.62826 24.1707 3.3909 24.4372 3.2317ZM24.8708 10.1924C24.8709 10.1925 24.8709 10.1925 24.8708 10.1924Z" stroke="white" stroke-width="0.25"/>
<path fill-rule="evenodd" clip-rule="evenodd" d="M47.979 16.4645L46.986 16.5829L47.5851 15.7822L47.9282 16.039L47.979 16.4645ZM39.1918 21.0829L38.1988 21.2014L38.2496 21.6269L38.5927 21.8837L39.1918 21.0829ZM45.9927 16.6984C45.9927 16.6985 45.9928 16.6993 45.993 16.7007L45.9927 16.6984ZM46.0154 17.1433C46.0156 17.1623 46.0158 17.1817 46.0159 17.2016C46.0174 17.5347 45.9952 17.9885 45.9038 18.477C45.7166 19.4773 45.275 20.4575 44.3389 20.998C43.4028 21.5385 42.3331 21.4308 41.3732 21.0928C40.9044 20.9277 40.5003 20.7199 40.2126 20.5521C40.1954 20.5421 40.1787 20.5322 40.1624 20.5226C40.1622 20.5036 40.162 20.4842 40.1619 20.4643C40.1604 20.1312 40.1826 19.6774 40.274 19.1889C40.4612 18.1886 40.9028 17.2084 41.8389 16.6679C42.775 16.1274 43.8447 16.2351 44.8046 16.5731C45.2734 16.7382 45.6775 16.946 45.9652 17.1138C45.9824 17.1238 45.9991 17.1337 46.0154 17.1433ZM47.5851 15.7822C47.5854 15.7825 47.5851 15.7822 46.986 16.5829C47.979 16.4645 47.9789 16.4641 47.979 16.4645L47.9792 16.4661L47.9794 16.468L47.98 16.473L47.9815 16.487C47.9827 16.4981 47.9842 16.5129 47.986 16.5311C47.9894 16.5675 47.9937 16.6177 47.998 16.6802C48.0065 16.8051 48.0149 16.9801 48.0159 17.1927C48.0178 17.6155 47.9902 18.2007 47.8697 18.845C47.6328 20.1102 47.0008 21.7705 45.3389 22.7301C43.677 23.6896 41.9231 23.4068 40.7089 22.9792C40.0907 22.7615 39.5702 22.4928 39.2049 22.2797C39.0212 22.1726 38.8739 22.0778 38.7701 22.008C38.718 21.973 38.6767 21.9442 38.6469 21.923C38.632 21.9124 38.62 21.9037 38.6109 21.8971L38.5996 21.8887L38.5956 21.8858L38.5927 21.8837C38.5924 21.8834 38.5927 21.8837 39.1918 21.0829C38.1988 21.2014 38.1989 21.2018 38.1988 21.2014L38.1984 21.1979L38.1978 21.1929L38.1963 21.1789C38.1951 21.1678 38.1936 21.153 38.1918 21.1348C38.1884 21.0984 38.1841 21.0482 38.1798 20.9856C38.1713 20.8608 38.1629 20.6858 38.1619 20.4732C38.16 20.0504 38.1876 19.4652 38.3081 18.8209C38.545 17.5556 39.177 15.8954 40.8389 14.9358C42.5008 13.9763 44.2547 14.2591 45.4689 14.6867C46.0871 14.9044 46.6076 15.1731 46.9729 15.3862C47.1566 15.4933 47.3039 15.5881 47.4077 15.6579C47.4598 15.6928 47.5011 15.7217 47.5309 15.7429C47.5458 15.7535 47.5578 15.7622 47.5669 15.7688L47.5782 15.7772L47.5822 15.7801L47.5838 15.7813L47.5851 15.7822Z" fill="#262626"/>
<path d="M46.986 16.5829L47.979 16.4645M46.986 16.5829L47.5851 15.7822M46.986 16.5829C47.5851 15.7822 47.5854 15.7825 47.5851 15.7822M46.986 16.5829C47.979 16.4645 47.9789 16.4641 47.979 16.4645M47.979 16.4645L47.9282 16.039L47.5851 15.7822M47.979 16.4645L47.9792 16.4661L47.9794 16.468L47.98 16.473L47.9815 16.487C47.9827 16.4981 47.9842 16.5129 47.986 16.5311C47.9894 16.5675 47.9937 16.6177 47.998 16.6802C48.0065 16.8051 48.0149 16.9801 48.0159 17.1927C48.0178 17.6155 47.9902 18.2007 47.8697 18.845C47.6328 20.1102 47.0008 21.7705 45.3389 22.7301C43.677 23.6896 41.9231 23.4068 40.7089 22.9792C40.0907 22.7615 39.5702 22.4928 39.2049 22.2797C39.0212 22.1726 38.8739 22.0778 38.7701 22.008C38.718 21.973 38.6767 21.9442 38.6469 21.923C38.632 21.9124 38.62 21.9037 38.6109 21.8971L38.5996 21.8887L38.5956 21.8858L38.5927 21.8837M47.5851 15.7822L47.5838 15.7813L47.5822 15.7801L47.5782 15.7772L47.5669 15.7688C47.5578 15.7622 47.5458 15.7535 47.5309 15.7429C47.5011 15.7217 47.4598 15.6928 47.4077 15.6579C47.3039 15.5881 47.1566 15.4933 46.9729 15.3862C46.6076 15.1731 46.0871 14.9044 45.4689 14.6867C44.2547 14.2591 42.5008 13.9763 40.8389 14.9358C39.177 15.8954 38.545 17.5556 38.3081 18.8209C38.1876 19.4652 38.16 20.0504 38.1619 20.4732C38.1629 20.6858 38.1713 20.8608 38.1798 20.9856C38.1841 21.0482 38.1884 21.0984 38.1918 21.1348C38.1936 21.153 38.1951 21.1678 38.1963 21.1789L38.1978 21.1929L38.1984 21.1979L38.1988 21.2014M39.1918 21.0829L38.1988 21.2014M39.1918 21.0829L38.5927 21.8837M39.1918 21.0829C38.5927 21.8837 38.5924 21.8834 38.5927 21.8837M39.1918 21.0829C38.1988 21.2014 38.1989 21.2018 38.1988 21.2014M38.1988 21.2014L38.2496 21.6269L38.5927 21.8837M45.9927 16.6984C45.9927 16.6985 45.9928 16.6993 45.993 16.7007L45.9927 16.6984ZM46.0154 17.1433C46.0156 17.1623 46.0158 17.1817 46.0159 17.2016C46.0174 17.5347 45.9952 17.9885 45.9038 18.477C45.7166 19.4773 45.275 20.4575 44.3389 20.998C43.4028 21.5385 42.3331 21.4308 41.3732 21.0928C40.9044 20.9277 40.5003 20.7199 40.2126 20.5521C40.1954 20.5421 40.1787 20.5322 40.1624 20.5226C40.1622 20.5036 40.162 20.4842 40.1619 20.4643C40.1604 20.1312 40.1826 19.6774 40.274 19.1889C40.4612 18.1886 40.9028 17.2084 41.8389 16.6679C42.775 16.1274 43.8447 16.2351 44.8046 16.5731C45.2734 16.7382 45.6775 16.946 45.9652 17.1138C45.9824 17.1238 45.9991 17.1337 46.0154 17.1433Z" stroke="white" stroke-width="0.25"/>
<path fill-rule="evenodd" clip-rule="evenodd" d="M1.19925 16.4645L2.19221 16.5829L1.59316 15.7822L1.25 16.039L1.19925 16.4645ZM9.98644 21.0829L10.9794 21.2014L10.9286 21.6269L10.5855 21.8837L9.98644 21.0829ZM3.18552 16.6984C3.18551 16.6985 3.18542 16.6993 3.18526 16.7007L3.18552 16.6984ZM3.16284 17.1433C3.16259 17.1623 3.16242 17.1817 3.16233 17.2016C3.16085 17.5347 3.18298 17.9885 3.27442 18.477C3.46164 19.4773 3.90319 20.4575 4.83932 20.998C5.77546 21.5385 6.84516 21.4308 7.80502 21.0928C8.27381 20.9277 8.67791 20.7199 8.96558 20.5521C8.98278 20.5421 8.99953 20.5322 9.01581 20.5226C9.01605 20.5036 9.01623 20.4842 9.01631 20.4643C9.0178 20.1312 8.99566 19.6774 8.90423 19.1889C8.71701 18.1886 8.27546 17.2084 7.33932 16.6679C6.40319 16.1274 5.33349 16.2351 4.37363 16.5731C3.90483 16.7382 3.50073 16.946 3.21307 17.1138C3.19586 17.1238 3.17911 17.1337 3.16284 17.1433ZM1.59316 15.7822C1.59286 15.7825 1.59316 15.7822 2.19221 16.5829C1.19925 16.4645 1.19929 16.4641 1.19925 16.4645L1.19906 16.4661L1.19883 16.468L1.19827 16.473L1.19672 16.487C1.19552 16.4981 1.194 16.5129 1.19227 16.5311C1.18881 16.5675 1.18449 16.6177 1.18023 16.6802C1.1717 16.8051 1.1633 16.9801 1.16235 17.1927C1.16047 17.6155 1.18797 18.2007 1.30856 18.845C1.54538 20.1102 2.17738 21.7705 3.83932 22.7301C5.50127 23.6896 7.25512 23.4068 8.4693 22.9792C9.08752 22.7615 9.60806 22.4928 9.97328 22.2797C10.157 22.1726 10.3043 22.0778 10.4082 22.008C10.4602 21.973 10.5015 21.9442 10.5313 21.923C10.5462 21.9124 10.5583 21.9037 10.5673 21.8971L10.5787 21.8887L10.5826 21.8858L10.5855 21.8837C10.5858 21.8834 10.5855 21.8837 9.98644 21.0829C10.9794 21.2014 10.9794 21.2018 10.9794 21.2014L10.9798 21.1979L10.9804 21.1929L10.9819 21.1789C10.9831 21.1678 10.9846 21.153 10.9864 21.1348C10.9898 21.0984 10.9942 21.0482 10.9984 20.9856C11.0069 20.8608 11.0153 20.6858 11.0163 20.4732C11.0182 20.0504 10.9907 19.4652 10.8701 18.8209C10.6333 17.5556 10.0013 15.8954 8.33932 14.9358C6.67738 13.9763 4.92352 14.2591 3.70935 14.6867C3.09112 14.9044 2.57058 15.1731 2.20536 15.3862C2.02166 15.4933 1.87437 15.5881 1.77048 15.6579C1.71847 15.6928 1.67713 15.7217 1.64734 15.7429C1.63243 15.7535 1.6204 15.7622 1.61134 15.7688L1.59998 15.7772L1.596 15.7801L1.59444 15.7813L1.59316 15.7822Z" fill="#262626"/>
<path d="M2.19221 16.5829L1.19925 16.4645M2.19221 16.5829L1.59316 15.7822M2.19221 16.5829C1.59316 15.7822 1.59286 15.7825 1.59316 15.7822M2.19221 16.5829C1.19925 16.4645 1.19929 16.4641 1.19925 16.4645M1.19925 16.4645L1.25 16.039L1.59316 15.7822M1.19925 16.4645L1.19906 16.4661L1.19883 16.468L1.19827 16.473L1.19672 16.487C1.19552 16.4981 1.194 16.5129 1.19227 16.5311C1.18881 16.5675 1.18449 16.6177 1.18023 16.6802C1.1717 16.8051 1.1633 16.9801 1.16235 17.1927C1.16047 17.6155 1.18797 18.2007 1.30856 18.845C1.54538 20.1102 2.17738 21.7705 3.83932 22.7301C5.50127 23.6896 7.25512 23.4068 8.4693 22.9792C9.08752 22.7615 9.60806 22.4928 9.97328 22.2797C10.157 22.1726 10.3043 22.0778 10.4082 22.008C10.4602 21.973 10.5015 21.9442 10.5313 21.923C10.5462 21.9124 10.5583 21.9037 10.5673 21.8971L10.5787 21.8887L10.5826 21.8858L10.5855 21.8837M1.59316 15.7822L1.59444 15.7813L1.596 15.7801L1.59998 15.7772L1.61134 15.7688C1.6204 15.7622 1.63243 15.7535 1.64734 15.7429C1.67713 15.7217 1.71847 15.6928 1.77048 15.6579C1.87437 15.5881 2.02166 15.4933 2.20536 15.3862C2.57058 15.1731 3.09112 14.9044 3.70935 14.6867C4.92352 14.2591 6.67738 13.9763 8.33932 14.9358C10.0013 15.8954 10.6333 17.5556 10.8701 18.8209C10.9907 19.4652 11.0182 20.0504 11.0163 20.4732C11.0153 20.6858 11.0069 20.8608 10.9984 20.9856C10.9942 21.0482 10.9898 21.0984 10.9864 21.1348C10.9846 21.153 10.9831 21.1678 10.9819 21.1789L10.9804 21.1929L10.9798 21.1979L10.9794 21.2014M9.98644 21.0829L10.9794 21.2014M9.98644 21.0829L10.5855 21.8837M9.98644 21.0829C10.5855 21.8837 10.5858 21.8834 10.5855 21.8837M9.98644 21.0829C10.9794 21.2014 10.9794 21.2018 10.9794 21.2014M10.9794 21.2014L10.9286 21.6269L10.5855 21.8837M3.18552 16.6984C3.18551 16.6985 3.18542 16.6993 3.18526 16.7007L3.18552 16.6984ZM3.16284 17.1433C3.16259 17.1623 3.16242 17.1817 3.16233 17.2016C3.16085 17.5347 3.18298 17.9885 3.27442 18.477C3.46164 19.4773 3.90319 20.4575 4.83932 20.998C5.77546 21.5385 6.84516 21.4308 7.80502 21.0928C8.27381 20.9277 8.67791 20.7199 8.96558 20.5521C8.98278 20.5421 8.99953 20.5322 9.01581 20.5226C9.01605 20.5036 9.01623 20.4842 9.01631 20.4643C9.0178 20.1312 8.99566 19.6774 8.90423 19.1889C8.71701 18.1886 8.27546 17.2084 7.33932 16.6679C6.40319 16.1274 5.33349 16.2351 4.37363 16.5731C3.90483 16.7382 3.50073 16.946 3.21307 17.1138C3.19586 17.1238 3.17911 17.1337 3.16284 17.1433Z" stroke="white" stroke-width="0.25"/>
<path fill-rule="evenodd" clip-rule="evenodd" d="M47.9148 40.5054L47.2726 39.7389L48.2706 39.8024L48.2433 40.2301L47.9148 40.5054ZM39.2425 35.6747L38.6003 34.9082L38.2718 35.1834L38.2445 35.6111L39.2425 35.6747ZM46.6327 38.9704C46.6326 38.9705 46.632 38.971 46.6309 38.9719L46.6327 38.9704ZM46.2726 39.2327C46.2569 39.2433 46.2407 39.2541 46.2241 39.265C45.9461 39.4484 45.554 39.6781 45.095 39.8687C44.1552 40.2591 43.0931 40.4255 42.1286 39.9374C41.1641 39.4492 40.6693 38.4948 40.4273 37.5063C40.3091 37.0236 40.262 36.5717 40.2452 36.2391C40.2442 36.2192 40.2433 36.1998 40.2425 36.1808C40.2582 36.1703 40.2744 36.1595 40.291 36.1485C40.569 35.9651 40.9611 35.7355 41.4201 35.5448C42.3599 35.1545 43.422 34.9881 44.3865 35.4762C45.3509 35.9643 45.8458 36.9188 46.0878 37.9072C46.206 38.39 46.253 38.8419 46.2699 39.1745C46.2709 39.1944 46.2718 39.2138 46.2726 39.2327ZM48.2706 39.8024C48.2706 39.8028 48.2706 39.8024 47.2726 39.7389C47.9148 40.5054 47.9151 40.5051 47.9148 40.5054L47.9136 40.5064L47.9121 40.5077L47.9083 40.5108L47.8974 40.5198C47.8887 40.5269 47.8772 40.5362 47.8629 40.5476C47.8343 40.5704 47.7946 40.6015 47.7446 40.6393C47.6447 40.7147 47.5029 40.8174 47.3253 40.9345C46.9724 41.1673 46.4674 41.4644 45.8621 41.7158C44.6733 42.2095 42.9377 42.5884 41.2255 41.7218C39.5132 40.8553 38.7908 39.2323 38.4847 37.9819C38.3288 37.3453 38.2691 36.7625 38.2478 36.3403C38.237 36.1279 38.2358 35.9527 38.2374 35.8276C38.2382 35.7649 38.2398 35.7145 38.2412 35.678C38.2419 35.6597 38.2426 35.6449 38.2432 35.6337L38.244 35.6196L38.2443 35.6147L38.2445 35.6111C38.2445 35.6107 38.2445 35.6111 39.2425 35.6747C38.6003 34.9082 38.6 34.9084 38.6003 34.9082L38.603 34.9059L38.6068 34.9028L38.6177 34.8938C38.6264 34.8867 38.6379 34.8773 38.6522 34.8659C38.6808 34.8431 38.7205 34.812 38.7705 34.7743C38.8704 34.6988 39.0122 34.5961 39.1897 34.479C39.5427 34.2462 40.0476 33.9492 40.6529 33.6978C41.8417 33.2041 43.5774 32.8251 45.2896 33.6917C47.0018 34.5583 47.7243 36.1813 48.0304 37.4316C48.1863 38.0683 48.2459 38.651 48.2673 39.0733C48.2781 39.2857 48.2793 39.4608 48.2777 39.586C48.2769 39.6487 48.2753 39.699 48.2739 39.7356C48.2731 39.7539 48.2724 39.7687 48.2719 39.7799L48.2711 39.794L48.2708 39.7989L48.2707 39.8009L48.2706 39.8024Z" fill="#262626"/>
<path d="M47.2726 39.7389L47.9148 40.5054M47.2726 39.7389L48.2706 39.8024M47.2726 39.7389C48.2706 39.8024 48.2706 39.8028 48.2706 39.8024M47.2726 39.7389C47.9148 40.5054 47.9151 40.5051 47.9148 40.5054M47.9148 40.5054L48.2433 40.2301L48.2706 39.8024M47.9148 40.5054L47.9136 40.5064L47.9121 40.5077L47.9083 40.5108L47.8974 40.5198C47.8887 40.5269 47.8772 40.5362 47.8629 40.5476C47.8343 40.5704 47.7946 40.6015 47.7446 40.6393C47.6447 40.7147 47.5029 40.8174 47.3253 40.9345C46.9724 41.1673 46.4674 41.4644 45.8621 41.7158C44.6733 42.2095 42.9377 42.5884 41.2255 41.7218C39.5132 40.8553 38.7908 39.2323 38.4847 37.9819C38.3288 37.3453 38.2691 36.7625 38.2478 36.3403C38.237 36.1279 38.2358 35.9527 38.2374 35.8276C38.2382 35.7649 38.2398 35.7145 38.2412 35.678C38.2419 35.6597 38.2426 35.6449 38.2432 35.6337L38.244 35.6196L38.2443 35.6147L38.2445 35.6111M48.2706 39.8024L48.2707 39.8009L48.2708 39.7989L48.2711 39.794L48.2719 39.7799C48.2724 39.7687 48.2731 39.7539 48.2739 39.7356C48.2753 39.699 48.2769 39.6487 48.2777 39.586C48.2793 39.4608 48.2781 39.2857 48.2673 39.0733C48.2459 38.651 48.1863 38.0683 48.0304 37.4316C47.7243 36.1813 47.0018 34.5583 45.2896 33.6917C43.5774 32.8251 41.8417 33.2041 40.6529 33.6978C40.0476 33.9492 39.5427 34.2462 39.1897 34.479C39.0122 34.5961 38.8704 34.6988 38.7705 34.7743C38.7205 34.812 38.6808 34.8431 38.6522 34.8659C38.6379 34.8773 38.6264 34.8867 38.6177 34.8938L38.6068 34.9028L38.603 34.9059L38.6003 34.9082M39.2425 35.6747L38.6003 34.9082M39.2425 35.6747L38.2445 35.6111M39.2425 35.6747C38.2445 35.6111 38.2445 35.6107 38.2445 35.6111M39.2425 35.6747C38.6003 34.9082 38.6 34.9084 38.6003 34.9082M38.6003 34.9082L38.2718 35.1834L38.2445 35.6111M46.6327 38.9704C46.6326 38.9705 46.632 38.971 46.6309 38.9719L46.6327 38.9704ZM46.2726 39.2327C46.2569 39.2433 46.2407 39.2541 46.2241 39.265C45.9461 39.4484 45.554 39.6781 45.095 39.8687C44.1552 40.2591 43.0931 40.4255 42.1286 39.9374C41.1641 39.4492 40.6693 38.4948 40.4273 37.5063C40.3091 37.0236 40.262 36.5717 40.2452 36.2391C40.2442 36.2192 40.2433 36.1998 40.2425 36.1808C40.2582 36.1703 40.2744 36.1595 40.291 36.1485C40.569 35.9651 40.9611 35.7355 41.4201 35.5448C42.3599 35.1545 43.422 34.9881 44.3865 35.4762C45.3509 35.9643 45.8458 36.9188 46.0878 37.9072C46.206 38.39 46.253 38.8419 46.2699 39.1745C46.2709 39.1944 46.2718 39.2138 46.2726 39.2327Z" stroke="white" stroke-width="0.25"/>
<path fill-rule="evenodd" clip-rule="evenodd" d="M1.60033 40.5054L2.24254 39.7389L1.24456 39.8024L1.27181 40.2301L1.60033 40.5054ZM10.2727 35.6747L10.9149 34.9082L11.2434 35.1834L11.2706 35.6111L10.2727 35.6747ZM2.88247 38.9704C2.88254 38.9705 2.88313 38.971 2.88425 38.9719L2.88247 38.9704ZM3.24254 39.2327C3.25826 39.2433 3.27444 39.2541 3.29107 39.265C3.56906 39.4484 3.96111 39.6781 4.42011 39.8687C5.35991 40.2591 6.42206 40.4255 7.38652 39.9374C8.35099 39.4492 8.84583 38.4948 9.08783 37.5063C9.20602 37.0236 9.2531 36.5717 9.26995 36.2391C9.27096 36.2192 9.27185 36.1998 9.27265 36.1808C9.25693 36.1703 9.24075 36.1595 9.22413 36.1485C8.94613 35.9651 8.55408 35.7355 8.09508 35.5448C7.15528 35.1545 6.09313 34.9881 5.12867 35.4762C4.16421 35.9643 3.66936 36.9188 3.42737 37.9072C3.30918 38.39 3.2621 38.8419 3.24524 39.1745C3.24424 39.1944 3.24334 39.2138 3.24254 39.2327ZM1.24456 39.8024C1.24459 39.8028 1.24456 39.8024 2.24254 39.7389C1.60033 40.5054 1.60003 40.5051 1.60033 40.5054L1.60155 40.5064L1.60304 40.5077L1.60686 40.5108L1.61773 40.5198C1.62641 40.5269 1.63795 40.5362 1.65225 40.5476C1.68083 40.5704 1.72052 40.6015 1.77053 40.6393C1.87042 40.7147 2.01227 40.8174 2.1898 40.9345C2.54273 41.1673 3.04769 41.4644 3.65299 41.7158C4.84179 42.2095 6.57742 42.5884 8.28966 41.7218C10.0019 40.8553 10.7243 39.2323 11.0305 37.9819C11.1863 37.3453 11.246 36.7625 11.2674 36.3403C11.2781 36.1279 11.2794 35.9527 11.2777 35.8276C11.2769 35.7649 11.2754 35.7145 11.2739 35.678C11.2732 35.6597 11.2725 35.6449 11.2719 35.6337L11.2711 35.6196L11.2709 35.6147L11.2706 35.6111C11.2706 35.6107 11.2706 35.6111 10.2727 35.6747C10.9149 34.9082 10.9152 34.9084 10.9149 34.9082L10.9121 34.9059L10.9083 34.9028L10.8975 34.8938C10.8888 34.8867 10.8772 34.8773 10.8629 34.8659C10.8344 34.8431 10.7947 34.812 10.7447 34.7743C10.6448 34.6988 10.5029 34.5961 10.3254 34.479C9.97246 34.2462 9.4675 33.9492 8.8622 33.6978C7.6734 33.2041 5.93777 32.8251 4.22553 33.6917C2.51329 34.5583 1.79085 36.1813 1.48474 37.4316C1.32888 38.0683 1.2692 38.651 1.24781 39.0733C1.23705 39.2857 1.23581 39.4608 1.23745 39.586C1.23827 39.6487 1.23981 39.699 1.24126 39.7356C1.24199 39.7539 1.24269 39.7687 1.24328 39.7799L1.24405 39.794L1.24434 39.7989L1.24446 39.8009L1.24456 39.8024Z" fill="#262626"/>
<path d="M2.24254 39.7389L1.60033 40.5054M2.24254 39.7389L1.24456 39.8024M2.24254 39.7389C1.24456 39.8024 1.24459 39.8028 1.24456 39.8024M2.24254 39.7389C1.60033 40.5054 1.60003 40.5051 1.60033 40.5054M1.60033 40.5054L1.27181 40.2301L1.24456 39.8024M1.60033 40.5054L1.60155 40.5064L1.60304 40.5077L1.60686 40.5108L1.61773 40.5198C1.62641 40.5269 1.63795 40.5362 1.65225 40.5476C1.68083 40.5704 1.72052 40.6015 1.77053 40.6393C1.87042 40.7147 2.01227 40.8174 2.1898 40.9345C2.54273 41.1673 3.04769 41.4644 3.65299 41.7158C4.84179 42.2095 6.57742 42.5884 8.28966 41.7218C10.0019 40.8553 10.7243 39.2323 11.0305 37.9819C11.1863 37.3453 11.246 36.7625 11.2674 36.3403C11.2781 36.1279 11.2794 35.9527 11.2777 35.8276C11.2769 35.7649 11.2754 35.7145 11.2739 35.678C11.2732 35.6597 11.2725 35.6449 11.2719 35.6337L11.2711 35.6196L11.2709 35.6147L11.2706 35.6111M1.24456 39.8024L1.24446 39.8009L1.24434 39.7989L1.24405 39.794L1.24328 39.7799C1.24269 39.7687 1.24199 39.7539 1.24126 39.7356C1.23981 39.699 1.23827 39.6487 1.23745 39.586C1.23581 39.4608 1.23705 39.2857 1.24781 39.0733C1.2692 38.651 1.32888 38.0683 1.48474 37.4316C1.79085 36.1813 2.51329 34.5583 4.22553 33.6917C5.93777 32.8251 7.6734 33.2041 8.8622 33.6978C9.4675 33.9492 9.97246 34.2462 10.3254 34.479C10.5029 34.5961 10.6448 34.6988 10.7447 34.7743C10.7947 34.812 10.8344 34.8431 10.8629 34.8659C10.8772 34.8773 10.8888 34.8867 10.8975 34.8938L10.9083 34.9028L10.9121 34.9059L10.9149 34.9082M10.2727 35.6747L10.9149 34.9082M10.2727 35.6747L11.2706 35.6111M10.2727 35.6747C11.2706 35.6111 11.2706 35.6107 11.2706 35.6111M10.2727 35.6747C10.9149 34.9082 10.9152 34.9084 10.9149 34.9082M10.9149 34.9082L11.2434 35.1834L11.2706 35.6111M2.88247 38.9704C2.88254 38.9705 2.88313 38.971 2.88425 38.9719L2.88247 38.9704ZM3.24254 39.2327C3.25826 39.2433 3.27444 39.2541 3.29107 39.265C3.56906 39.4484 3.96111 39.6781 4.42011 39.8687C5.35991 40.2591 6.42206 40.4255 7.38652 39.9374C8.35099 39.4492 8.84583 38.4948 9.08783 37.5063C9.20602 37.0236 9.2531 36.5717 9.26995 36.2391C9.27096 36.2192 9.27185 36.1998 9.27265 36.1808C9.25693 36.1703 9.24075 36.1595 9.22413 36.1485C8.94613 35.9651 8.55408 35.7355 8.09508 35.5448C7.15528 35.1545 6.09313 34.9881 5.12867 35.4762C4.16421 35.9643 3.66936 36.9188 3.42737 37.9072C3.30918 38.39 3.2621 38.8419 3.24524 39.1745C3.24424 39.1944 3.24334 39.2138 3.24254 39.2327Z" stroke="white" stroke-width="0.25"/>
<path fill-rule="evenodd" clip-rule="evenodd" d="M23.9937 54.5306L24.3923 53.6135L24.7816 54.5346L24.3868 54.7014L23.9937 54.5306ZM24.4382 44.6136L24.8368 43.6965L24.4437 43.5257L24.0489 43.6925L24.4382 44.6136ZM24.7936 52.6976C24.7936 52.6975 24.7928 52.6972 24.7915 52.6966L24.7936 52.6976ZM24.398 52.4927C24.3816 52.4834 24.3647 52.4737 24.3474 52.4638C24.0591 52.2971 23.6784 52.049 23.3027 51.7237C22.5335 51.0575 21.9098 50.1818 21.9153 49.1008C21.9208 48.0199 22.5534 47.1506 23.3294 46.4922C23.7084 46.1707 24.0916 45.9266 24.3816 45.7628C24.3989 45.753 24.4159 45.7436 24.4325 45.7344C24.4489 45.7437 24.4658 45.7534 24.483 45.7633C24.7713 45.93 25.152 46.1781 25.5278 46.5034C26.297 47.1696 26.9207 48.0453 26.9152 49.1263C26.9097 50.2072 26.2771 51.0765 25.5011 51.7349C25.1221 52.0564 24.7389 52.3005 24.4489 52.4643C24.4316 52.4741 24.4146 52.4835 24.398 52.4927ZM24.7816 54.5346C24.7812 54.5348 24.7816 54.5346 24.3923 53.6135C23.9937 54.5306 23.9941 54.5308 23.9937 54.5306L23.9923 54.53L23.9905 54.5292L23.9859 54.5272L23.9731 54.5215C23.9628 54.5169 23.9493 54.5107 23.9327 54.5031C23.8995 54.4877 23.854 54.4661 23.7979 54.4382C23.6857 54.3826 23.5304 54.3016 23.3463 54.1952C22.9803 53.9835 22.4889 53.6646 21.9934 53.2355C21.0203 52.3928 19.9055 51.0097 19.9153 49.0906C19.9251 47.1716 21.0539 45.7999 22.0355 44.9671C22.5353 44.5431 23.03 44.2292 23.3981 44.0213C23.5833 43.9167 23.7394 43.8373 23.8521 43.7829C23.9085 43.7556 23.9543 43.7344 23.9876 43.7194C24.0043 43.7119 24.0179 43.7059 24.0282 43.7014L24.0411 43.6958L24.0457 43.6939L24.0489 43.6925C24.0493 43.6923 24.0489 43.6925 24.4382 44.6136C24.8368 43.6965 24.8364 43.6963 24.8368 43.6965L24.84 43.6979L24.8445 43.6999L24.8574 43.7056C24.8676 43.7102 24.8812 43.7164 24.8978 43.724C24.9309 43.7394 24.9765 43.761 25.0326 43.7889C25.1448 43.8445 25.3 43.9255 25.4841 44.0319C25.8502 44.2436 26.3416 44.5625 26.8371 44.9916C27.8101 45.8343 28.925 47.2174 28.9152 49.1365C28.9054 51.0555 27.7766 52.4272 26.7949 53.26C26.2951 53.684 25.8005 53.9979 25.4323 54.2058C25.2471 54.3104 25.091 54.3898 24.9784 54.4442C24.9219 54.4715 24.8762 54.4927 24.8428 54.5077C24.8262 54.5152 24.8126 54.5212 24.8023 54.5257L24.7894 54.5313L24.7848 54.5332L24.783 54.534L24.7816 54.5346Z" fill="#262626"/>
<path d="M24.3923 53.6135L23.9937 54.5306M24.3923 53.6135L24.7816 54.5346M24.3923 53.6135C24.7816 54.5346 24.7812 54.5348 24.7816 54.5346M24.3923 53.6135C23.9937 54.5306 23.9941 54.5308 23.9937 54.5306M23.9937 54.5306L24.3868 54.7014L24.7816 54.5346M23.9937 54.5306L23.9923 54.53L23.9905 54.5292L23.9859 54.5272L23.9731 54.5215C23.9628 54.5169 23.9493 54.5107 23.9327 54.5031C23.8995 54.4877 23.854 54.4661 23.7979 54.4382C23.6857 54.3826 23.5304 54.3016 23.3463 54.1952C22.9803 53.9835 22.4889 53.6646 21.9934 53.2355C21.0203 52.3928 19.9055 51.0097 19.9153 49.0906C19.9251 47.1716 21.0539 45.7999 22.0355 44.9671C22.5353 44.5431 23.03 44.2292 23.3981 44.0213C23.5833 43.9167 23.7394 43.8373 23.8521 43.7829C23.9085 43.7556 23.9543 43.7344 23.9876 43.7194C24.0043 43.7119 24.0179 43.7059 24.0282 43.7014L24.0411 43.6958L24.0457 43.6939L24.0489 43.6925M24.7816 54.5346L24.783 54.534L24.7848 54.5332L24.7894 54.5313L24.8023 54.5257C24.8126 54.5212 24.8262 54.5152 24.8428 54.5077C24.8762 54.4927 24.9219 54.4715 24.9784 54.4442C25.091 54.3898 25.2471 54.3104 25.4323 54.2058C25.8005 53.9979 26.2951 53.684 26.7949 53.26C27.7766 52.4272 28.9054 51.0555 28.9152 49.1365C28.925 47.2174 27.8101 45.8343 26.8371 44.9916C26.3416 44.5625 25.8502 44.2436 25.4841 44.0319C25.3 43.9255 25.1448 43.8445 25.0326 43.7889C24.9765 43.761 24.9309 43.7394 24.8978 43.724C24.8812 43.7164 24.8676 43.7102 24.8574 43.7056L24.8445 43.6999L24.84 43.6979L24.8368 43.6965M24.4382 44.6136L24.8368 43.6965M24.4382 44.6136L24.0489 43.6925M24.4382 44.6136C24.0489 43.6925 24.0493 43.6923 24.0489 43.6925M24.4382 44.6136C24.8368 43.6965 24.8364 43.6963 24.8368 43.6965M24.8368 43.6965L24.4437 43.5257L24.0489 43.6925M24.7936 52.6976C24.7936 52.6975 24.7928 52.6972 24.7915 52.6966L24.7936 52.6976ZM24.398 52.4927C24.3816 52.4834 24.3647 52.4737 24.3474 52.4638C24.0591 52.2971 23.6784 52.049 23.3027 51.7237C22.5335 51.0575 21.9098 50.1818 21.9153 49.1008C21.9208 48.0199 22.5534 47.1506 23.3294 46.4922C23.7084 46.1707 24.0916 45.9266 24.3816 45.7628C24.3989 45.753 24.4159 45.7436 24.4325 45.7344C24.4489 45.7437 24.4658 45.7534 24.483 45.7633C24.7713 45.93 25.152 46.1781 25.5278 46.5034C26.297 47.1696 26.9207 48.0453 26.9152 49.1263C26.9097 50.2072 26.2771 51.0765 25.5011 51.7349C25.1221 52.0564 24.7389 52.3005 24.4489 52.4643C24.4316 52.4741 24.4146 52.4835 24.398 52.4927Z" stroke="white" stroke-width="0.25"/>
<path fill-rule="evenodd" clip-rule="evenodd" d="M24.4422 15.3938L24.9969 15.7636C26.6175 16.844 27.6952 18.07 28.3033 19.3875C28.9133 20.7094 29.0204 22.0581 28.8028 23.3271C28.7528 23.6186 28.6859 23.9059 28.6039 24.1883C29.9933 23.6633 31.6557 23.427 33.5942 23.7252L34.4883 23.8627L34.4408 24.7661C34.1868 29.5907 33.2023 31.8494 31.252 33.1672C30.4316 33.7215 29.4779 34.0753 28.5508 34.4194C28.4694 34.4495 28.3882 34.4797 28.3074 34.5098C27.4106 34.8445 26.4635 35.2129 25.4422 35.786V40.2136H23.4422V35.786C22.4209 35.2129 21.4737 34.8445 20.5769 34.5098C20.4963 34.4797 20.4153 34.4497 20.3341 34.4196L20.3335 34.4194C19.4064 34.0753 18.4527 33.7215 17.6323 33.1672C15.682 31.8494 14.6975 29.5907 14.4435 24.7661L14.396 23.8627L15.2901 23.7252C17.228 23.427 18.8899 23.6632 20.2791 24.1878C20.1973 23.9055 20.1303 23.6183 20.0804 23.327C19.8631 22.0579 19.9704 20.7091 20.5807 19.3874C21.1891 18.0699 22.2669 16.844 23.8875 15.7636L24.4422 15.3938ZM25.4422 29.442V33.5343C26.2272 33.1583 26.9545 32.8799 27.6082 32.636L27.7889 32.5687L27.7889 32.5687L27.7889 32.5687C28.7872 32.1968 29.5195 31.924 30.1323 31.51C31.1849 30.7987 32.0641 29.533 32.3809 25.608C29.5879 25.4642 27.6215 26.7328 26.4514 28.0152C26.3964 28.0788 26.341 28.1416 26.2852 28.2035C25.9117 28.6414 25.631 29.0729 25.4422 29.442ZM22.418 27.9988C21.2461 26.7221 19.2846 25.4648 16.5034 25.608C16.8202 29.533 17.6994 30.7987 18.752 31.51C19.3648 31.9241 20.0971 32.1968 21.0954 32.5687L21.0954 32.5687L21.2761 32.636C21.9298 32.8799 22.6571 33.1583 23.4422 33.5343V29.442C23.2554 29.077 22.979 28.6511 22.6117 28.2183C22.5466 28.1463 22.482 28.0732 22.418 27.9988ZM24.4419 27.2421C25.575 26.1086 26.5597 24.5751 26.8316 22.9892C26.989 22.0707 26.9085 21.1382 26.4874 20.2256C26.1245 19.4394 25.4865 18.6203 24.4422 17.823C23.3978 18.6204 22.7596 19.4395 22.3965 20.2258C21.9751 21.1384 21.8944 22.0709 22.0517 22.9893C22.3233 24.5752 23.3081 26.1087 24.4419 27.2421Z" fill="#262626" stroke="white" stroke-width="0.25"/>
</svg>
