<svg width="18" height="23" viewBox="0 0 18 23" fill="none" xmlns="http://www.w3.org/2000/svg">
<path fill-rule="evenodd" clip-rule="evenodd" d="M5.19499 5.70974C5.51603 3.31007 7.16248 1.71292 8.8501 1.71292C10.5377 1.71292 12.1842 3.31007 12.5052 5.70974H5.19499ZM3.47269 5.70974C3.81111 2.62555 5.95115 0 8.8501 0C11.749 0 13.8891 2.62555 14.2275 5.70974H17.7002V17.9857C17.7002 20.3507 15.7829 22.268 13.4179 22.268H4.28231C1.91725 22.268 0 20.3507 0 17.9857V5.70974H3.47269ZM1.71292 17.9857V7.42266H15.9873V17.9857C15.9873 19.4047 14.8369 20.5551 13.4179 20.5551H4.28231C2.86327 20.5551 1.71292 19.4047 1.71292 17.9857Z" fill="#262626"/>
</svg>
